<svg width="800" height="600" viewBox="0 0 800 600" xmlns="http://www.w3.org/2000/svg" fill="none">
  <rect width="800" height="600" rx="48" fill="#09090B"/>
  <rect x="60" y="60" width="680" height="480" rx="40" fill="#0F172A" stroke="#1E293B" stroke-width="2"/>
  <rect x="100" y="120" width="260" height="200" rx="28" fill="#111827"/>
  <rect x="120" y="140" width="220" height="24" rx="12" fill="#1D4ED8"/>
  <rect x="120" y="180" width="180" height="16" rx="10" fill="#60A5FA"/>
  <rect x="120" y="210" width="140" height="16" rx="10" fill="#38BDF8" opacity="0.8"/>
  <rect x="120" y="250" width="200" height="44" rx="18" fill="#F97316" opacity="0.9"/>
  <rect x="400" y="120" width="300" height="80" rx="24" fill="#111827"/>
  <rect x="420" y="140" width="260" height="16" rx="10" fill="#F59E0B"/>
  <rect x="420" y="170" width="200" height="12" rx="8" fill="#F8FAFC" opacity="0.6"/>
  <rect x="400" y="220" width="300" height="160" rx="32" fill="#111827"/>
  <rect x="440" y="250" width="80" height="80" rx="20" fill="#38BDF8"/>
  <rect x="540" y="250" width="120" height="14" rx="8" fill="#F8FAFC" opacity="0.7"/>
  <rect x="540" y="276" width="100" height="14" rx="8" fill="#475569"/>
  <rect x="540" y="302" width="140" height="14" rx="8" fill="#64748B"/>
  <rect x="400" y="420" width="300" height="80" rx="24" fill="#111827" stroke="#1E293B" stroke-width="2"/>
  <rect x="420" y="440" width="220" height="16" rx="8" fill="#22D3EE"/>
  <rect x="100" y="360" width="260" height="140" rx="28" fill="#111827"/>
  <rect x="120" y="380" width="220" height="28" rx="14" fill="#22D3EE" opacity="0.9"/>
  <rect x="120" y="420" width="180" height="16" rx="10" fill="#A855F7" opacity="0.9"/>
  <rect x="120" y="450" width="200" height="14" rx="8" fill="#F8FAFC" opacity="0.55"/>
</svg>
