<svg width="800" height="600" viewBox="0 0 800 600" xmlns="http://www.w3.org/2000/svg" fill="none">
  <rect width="800" height="600" rx="48" fill="#09090B"/>
  <rect x="60" y="60" width="320" height="220" rx="32" fill="#1C1C1F"/>
  <rect x="100" y="100" width="100" height="80" rx="18" fill="#F97316"/>
  <rect x="220" y="100" width="100" height="80" rx="18" fill="#06B6D4"/>
  <rect x="100" y="200" width="100" height="80" rx="18" fill="#6366F1"/>
  <rect x="220" y="200" width="100" height="80" rx="18" fill="#FDE68A"/>
  <rect x="420" y="60" width="320" height="220" rx="32" fill="#18181B" stroke="#27272A" stroke-width="2"/>
  <rect x="460" y="100" width="240" height="40" rx="20" fill="#27272A"/>
  <rect x="460" y="160" width="180" height="20" rx="12" fill="#52525B"/>
  <rect x="460" y="200" width="140" height="20" rx="12" fill="#3F3F46"/>
  <circle cx="120" cy="380" r="36" fill="#2DD4BF"/>
  <circle cx="220" cy="380" r="36" fill="#E879F9"/>
  <circle cx="320" cy="380" r="36" fill="#F43F5E"/>
  <circle cx="420" cy="380" r="36" fill="#22D3EE"/>
  <rect x="60" y="440" width="660" height="120" rx="40" fill="#111827" stroke="#1F2937" stroke-width="2"/>
  <rect x="100" y="476" width="220" height="48" rx="24" fill="#6366F1"/>
  <rect x="360" y="476" width="200" height="48" rx="24" fill="#F97316" opacity="0.6"/>
</svg>
