<svg width="800" height="600" viewBox="0 0 800 600" xmlns="http://www.w3.org/2000/svg" fill="none">
  <rect width="800" height="600" rx="48" fill="#030712"/>
  <rect x="60" y="60" width="680" height="480" rx="40" fill="#050B1A" stroke="#0F172A" stroke-width="2"/>
  <polyline points="120,420 200,360 280,300 360,260 440,240 520,220 600,210 680,200" stroke="#38BDF8" stroke-width="12" stroke-linecap="round" stroke-linejoin="round" fill="none"/>
  <circle cx="200" cy="360" r="16" fill="#38BDF8"/>
  <circle cx="360" cy="260" r="16" fill="#38BDF8"/>
  <circle cx="520" cy="220" r="16" fill="#38BDF8"/>
  <circle cx="680" cy="200" r="16" fill="#38BDF8"/>
  <rect x="120" y="160" width="140" height="200" rx="24" fill="#111827"/>
  <rect x="140" y="200" width="40" height="120" rx="12" fill="#F97316"/>
  <rect x="200" y="240" width="40" height="80" rx="12" fill="#22D3EE" opacity="0.85"/>
  <rect x="260" y="280" width="40" height="40" rx="12" fill="#A855F7" opacity="0.8"/>
  <rect x="320" y="200" width="340" height="160" rx="28" fill="#0F172A" stroke="#1E293B" stroke-width="1.5"/>
  <rect x="360" y="230" width="80" height="80" rx="20" fill="#22D3EE"/>
  <rect x="460" y="240" width="160" height="16" rx="8" fill="#F8FAFC" opacity="0.85"/>
  <rect x="460" y="270" width="140" height="14" rx="8" fill="#475569"/>
  <rect x="460" y="300" width="180" height="14" rx="8" fill="#64748B" opacity="0.8"/>
  <rect x="120" y="440" width="600" height="80" rx="28" fill="#0F172A" stroke="#1E293B" stroke-width="1.5"/>
  <rect x="160" y="460" width="180" height="16" rx="8" fill="#22D3EE"/>
  <rect x="360" y="460" width="120" height="16" rx="8" fill="#A855F7" opacity="0.8"/>
  <rect x="520" y="460" width="140" height="16" rx="8" fill="#F97316" opacity="0.7"/>
</svg>
